<svg width="439" height="484" viewBox="0 0 439 484" fill="none" xmlns="http://www.w3.org/2000/svg">
<path fill-rule="evenodd" clip-rule="evenodd" d="M174.459 92.5873C181.786 96.9751 188.986 99.0951 192.366 98.2297C200.841 96.0595 201.62 65.2595 195.063 53.1172C188.505 40.9749 154.795 35.6825 153.096 59.7403C152.506 68.09 156.035 75.5416 161.249 81.6219L151.9 124.914L179.058 124.914L174.459 92.5873Z" fill="#B28B67"/>
<path fill-rule="evenodd" clip-rule="evenodd" d="M179.583 39.123C176.004 38.5399 166.366 38.139 164.589 38.1392C163.453 38.1392 162.222 38.397 161.55 37.361C160.999 36.5125 161.201 35.0776 161.036 34.0931C160.845 32.9493 160.574 31.8203 160.3 30.6942C159.519 27.4897 158.339 24.441 156.688 21.5787C153.589 16.2086 149.05 12.0022 143.319 9.55453C136.991 6.8519 129.829 6.23306 123.022 6.78124C115.738 7.36774 109.144 9.75667 102.266 12.0048C95.712 14.1471 88.8473 14.9903 81.9924 13.9442C75.0858 12.8902 69.8673 9.17148 64.0417 5.6419C58.078 2.02847 51.2626 -0.334845 44.2124 0.208425C37.6313 0.715719 31.5658 3.41525 26.1239 7.02143C21.0323 10.3955 16.8312 14.4548 14.4593 20.1681C11.9077 26.3139 11.91 33.0598 16.106 38.4912C22.1879 46.3641 33.4787 48.4 42.8722 48.1976C48.3056 48.0809 53.6418 47.0956 58.7715 45.3032C65.6126 42.9127 71.5244 38.8611 77.9245 35.5738C80.928 34.0312 84.0326 32.7643 87.2868 31.8516C90.4446 30.9657 93.5549 30.5593 96.4141 32.4544C99.4387 34.4593 102.149 36.4287 105.609 37.6837C108.929 38.8878 112.445 39.5612 115.981 39.534C122.862 39.4812 129.645 37.3514 136.328 35.9247C141.777 34.7616 147.608 33.6023 153.164 34.7204C155.483 35.1871 158.869 36.1504 159.707 38.544C145.613 41.0815 140.078 58.3968 144.051 71.1079C146.196 77.9685 159.086 85.9885 164.097 82.3818C167.272 80.0968 165.345 77.0971 164.097 75.1168C161.708 71.3245 160.891 66.4532 165.312 63.813C169.125 61.5358 173.134 66.9434 173.21 66.9374C174.258 66.8554 183.314 61.7675 189.553 54.343C195.708 54.7055 196.642 50.6736 195.172 47.3763C193.702 44.079 184.529 39.9293 179.583 39.123Z" fill="black"/>
<path fill-rule="evenodd" clip-rule="evenodd" d="M131.735 214.198C133.771 241.96 264.958 323.696 265.724 325.989C266.234 327.518 224.89 422.648 224.89 422.648L236.358 427.099C236.358 427.099 299.772 326.35 296.515 315.615C291.852 300.245 194.729 214.493 194.729 214.493L131.735 214.198Z" fill="#B28B67"/>
<path fill-rule="evenodd" clip-rule="evenodd" d="M227.908 408.325L246.63 415.133C286.11 370.638 301.585 333.925 298.764 315.219C295.942 296.513 197.328 214.266 197.328 214.266L130.392 214.266C132.676 278.559 254.27 326.234 255.896 328.974C257.523 331.714 241.517 358.547 227.908 408.325Z" fill="#AFB9C5"/>
<path fill-rule="evenodd" clip-rule="evenodd" d="M223.84 420.15C222.999 419.336 221.64 419.35 220.884 420.244C219.332 422.082 216.981 425.05 216.3 426.92C215.255 429.787 214.207 435.636 214.207 435.636C217.537 436.847 274.064 457.398 274.064 457.398C274.064 457.398 279.205 450.541 274.402 448.099C269.599 445.657 266.454 443.953 266.454 443.953L243.051 421.357C242.646 420.966 241.998 420.987 241.618 421.402L238.161 425.183C238.161 425.183 232.717 425.66 229.808 424.603C227.96 423.931 225.436 421.693 223.84 420.15Z" fill="#AFB9C5"/>
<path fill-rule="evenodd" clip-rule="evenodd" d="M146.818 214.198L88.3778 354.339L30.9399 472.817H44.4914L192.754 214.198H146.818Z" fill="#997659"/>
<path fill-rule="evenodd" clip-rule="evenodd" d="M33.0011 465.972C31.9324 465.495 30.6603 465.972 30.2566 467.071C29.4271 469.328 28.2344 472.92 28.2344 474.91C28.2344 477.962 29.2522 483.816 29.2522 483.816C32.7961 483.816 92.9508 483.816 92.9508 483.816C92.9508 483.816 95.4338 475.616 90.0842 474.963C84.7346 474.309 81.1963 473.782 81.1963 473.782L51.4676 460.544C50.9532 460.315 50.3513 460.555 50.1365 461.076L48.1827 465.81C48.1827 465.81 43.2304 468.118 40.1342 468.118C38.1675 468.118 35.0291 466.877 33.0011 465.972Z" fill="#AFB9C5"/>
<path fill-rule="evenodd" clip-rule="evenodd" d="M36.127 448.205L66.2384 453.845C89.5205 419.655 186.957 279.461 197.64 214.198H130.605C94.9292 261.377 58.3196 413.448 36.127 448.205Z" fill="#C5CFD6"/>
<path fill-rule="evenodd" clip-rule="evenodd" d="M281.449 88.0593L238.702 100.908L249.616 119.112L282.852 99.5275C298.367 98.6024 305.697 97.0703 304.844 94.9311C304.124 93.1275 302.411 92.8201 300.833 92.5371C299.603 92.3166 298.456 92.1108 297.924 91.2237C296.71 89.1981 300.967 83.9251 305.22 79.0941C309.473 74.2631 306.069 74.0381 304.014 74.4255C296.945 77.2991 289.423 81.8436 281.449 88.0593ZM270.899 202.819L234.925 176.369L226.973 196.052L262.596 210.843C272.671 222.693 278.305 227.633 279.497 225.663C280.502 224.002 279.717 222.447 278.993 221.014C278.429 219.899 277.902 218.857 278.29 217.898C279.175 215.708 285.942 215.939 292.355 216.433C298.768 216.926 296.899 214.069 295.353 212.658C288.807 208.735 280.655 205.455 270.899 202.819Z" fill="#B28B67"/>
<path fill-rule="evenodd" clip-rule="evenodd" d="M179.049 105.138C198.639 141.712 226.967 169.749 268.035 198.894L252.485 216.45C206.631 199.388 182.431 189.093 170.546 154.538C167.564 145.865 165.479 118.218 163.691 103.672L179.049 105.138Z" fill="#2026A2"/>
<path fill-rule="evenodd" clip-rule="evenodd" d="M124.285 226.994H211.122C211.122 226.994 181.617 136.892 180.977 103.314C180.955 102.173 178.85 100.162 177.919 100.425C167.703 103.314 156.056 98.2646 156.056 98.2646C135.469 131.416 128.35 172.232 124.285 226.994Z" fill="#F2F2F2"/>
<path fill-rule="evenodd" clip-rule="evenodd" d="M177.838 148.843C191.4 207.094 190.775 254.779 160.832 254.779H114.531C107.177 205.295 126.504 136.684 144.422 102.078C145.106 100.756 146.563 98.2648 149.994 98.2648L163.448 98.2648C163.454 98.2827 163.46 98.3005 163.466 98.3184C167.514 98.3516 171.973 98.4998 176.801 98.6603C201.658 99.4865 236.317 100.639 275.317 88.1021L279.915 111.108C244.714 133.776 209.07 151.336 177.838 148.843Z" fill="#1F28CF"/>
<path fill-rule="evenodd" clip-rule="evenodd" d="M389 86C361.386 86 339 108.386 339 136C339 163.614 361.386 186 389 186C416.614 186 439 163.614 439 136C439 108.386 416.614 86 389 86ZM372.167 124.896C372.167 122.836 373.836 121.167 375.896 121.167C377.955 121.167 379.625 122.836 379.625 124.896C379.625 126.955 377.955 128.625 375.896 128.625C373.836 128.625 372.167 126.955 372.167 124.896ZM375.896 117.167C371.627 117.167 368.167 120.627 368.167 124.896C368.167 129.164 371.627 132.625 375.896 132.625C380.165 132.625 383.625 129.164 383.625 124.896C383.625 120.627 380.165 117.167 375.896 117.167ZM405.956 122.873C406.737 122.092 406.737 120.825 405.956 120.044C405.175 119.263 403.908 119.263 403.127 120.044L371.044 152.128C370.263 152.909 370.263 154.175 371.044 154.956C371.825 155.737 373.091 155.737 373.872 154.956L405.956 122.873ZM401.104 146.375C399.045 146.375 397.375 148.045 397.375 150.104C397.375 152.164 399.045 153.833 401.104 153.833C403.164 153.833 404.833 152.164 404.833 150.104C404.833 148.045 403.164 146.375 401.104 146.375ZM393.375 150.104C393.375 145.835 396.835 142.375 401.104 142.375C405.373 142.375 408.833 145.835 408.833 150.104C408.833 154.373 405.373 157.833 401.104 157.833C396.835 157.833 393.375 154.373 393.375 150.104Z" fill="#1F28CE"/>
</svg>
