<svg width="351" height="418" viewBox="0 0 351 418" fill="none" xmlns="http://www.w3.org/2000/svg">
<path fill-rule="evenodd" clip-rule="evenodd" d="M142.352 88.9721C136.829 94.1363 130.998 97.3038 127.916 97.1717C120.19 96.8406 113.82 70.1845 117.242 58.4146C120.665 46.6447 148.825 35.846 154.743 56.4666C156.797 63.6234 155.125 70.7555 151.742 77.0041L167.83 112.955L144.355 117.944L142.352 88.9721Z" fill="#B28B67"/>
<path fill-rule="evenodd" clip-rule="evenodd" d="M156.091 56.0619C156.635 56.0073 157.181 55.9224 157.728 55.8062C165.831 54.0838 171.004 46.1185 169.281 38.0153C167.559 29.9121 159.594 24.7394 151.491 26.4618C143.457 28.1693 138.304 36.0128 139.894 44.0436C127.233 42.4647 112.943 50.4919 117.027 59.6327C119.532 65.2414 126.743 66.9129 134.101 68.6189C134.443 68.6982 134.786 68.7776 135.128 68.8575C135.779 66.8478 137.489 65.2198 139.746 64.7401C143.072 64.0332 146.326 66.0877 147.015 69.329C147.263 70.4965 147.145 71.6587 146.736 72.7011C149.529 74.2504 151.716 76.3648 152.799 79.4801C156.598 78.6726 160.367 66.2135 156.091 56.0619Z" fill="#191847"/>
<path fill-rule="evenodd" clip-rule="evenodd" d="M220 179L145.693 303.227L89.9847 408.25H77.9856L171.326 179L220 179Z" fill="#997659"/>
<path fill-rule="evenodd" clip-rule="evenodd" d="M94.5499 402.284C95.6216 401.813 96.8952 402.29 97.2944 403.391C98.0225 405.398 98.9995 408.409 98.9995 410.106C98.9995 412.811 98.0983 418 98.0983 418C94.9604 418 41.6965 418 41.6965 418C41.6965 418 39.4979 410.732 44.2347 410.152C48.9714 409.573 52.1045 409.106 52.1045 409.106L78.3195 397.419C78.8341 397.189 79.4365 397.43 79.6512 397.951L81.3363 402.039C81.3363 402.039 85.7213 404.085 88.4628 404.085C90.1318 404.085 92.7538 403.074 94.5499 402.284Z" fill="#E4E4E4"/>
<path fill-rule="evenodd" clip-rule="evenodd" d="M105.456 391.433L82.3164 384.433C82.3164 384.433 97.5239 338.971 119.594 284.374C141.664 229.778 167 179 167 179H232.355C232.355 179 204.188 243.232 172.634 295.725C141.079 348.219 105.456 391.433 105.456 391.433Z" fill="#2026A2"/>
<path fill-rule="evenodd" clip-rule="evenodd" d="M224.883 179C231.896 222.654 245.422 278.427 246.699 280.149C247.55 281.296 278.187 291.562 338.61 310.947L336.018 321.528C263.964 311.132 225.997 303.066 222.119 297.331C216.301 288.728 187.251 220.763 175.999 179H224.883Z" fill="#B28B67"/>
<path fill-rule="evenodd" clip-rule="evenodd" d="M317.37 301.8L312.805 318.842C258.912 323.569 225.891 320.153 213.742 308.596C201.592 297.039 187.745 253.84 172.201 179H234.521C244.37 240.284 249.876 272.212 251.039 274.785C252.203 277.357 274.313 286.363 317.37 301.8Z" fill="#1F28CE"/>
<path fill-rule="evenodd" clip-rule="evenodd" d="M334.069 309.074C333.79 307.937 334.481 306.765 335.635 306.563C337.739 306.195 340.873 305.756 342.544 306.05C345.208 306.52 350.162 308.309 350.162 308.309C349.617 311.399 340.368 363.854 340.368 363.854C340.368 363.854 332.828 364.757 333.08 359.991C333.332 355.226 333.416 352.059 333.416 352.059L326.459 324.213C326.322 323.667 326.664 323.115 327.214 322.994L331.532 322.044C331.532 322.044 334.309 318.081 334.785 315.381C335.074 313.738 334.535 310.98 334.069 309.074Z" fill="#E4E4E4"/>
<path fill-rule="evenodd" clip-rule="evenodd" d="M72.3634 185.901L111.154 176.779L110.88 195.832L76.419 195.456C64.0155 201.676 57.6642 203.763 57.3651 201.716C57.1129 199.99 58.2991 198.984 59.3916 198.058C60.2428 197.336 61.0371 196.663 61.0504 195.735C61.0809 193.615 55.4282 191.414 49.9763 189.557C44.5244 187.699 47.0536 186.001 48.816 185.383C55.5663 184.457 63.4155 184.63 72.3634 185.901ZM286.446 207.605C281.579 203.105 230.221 140.863 230.221 140.863L209.808 148.787C209.808 148.787 272.478 211.547 275.288 214.563C278.939 218.482 278.347 226.438 277.945 231.833C277.883 232.667 277.826 233.441 277.789 234.128C281.293 234.318 282.108 232.15 282.968 229.864C283.939 227.282 284.966 224.549 289.987 224.896C291.927 225.03 293.832 225.337 295.693 225.638C302.122 226.675 308.028 227.628 313.041 221.054C313.835 220.012 314.048 217.154 310.565 216.322C301.888 214.249 288.825 209.805 286.446 207.605Z" fill="#997659"/>
<path fill-rule="evenodd" clip-rule="evenodd" d="M149.337 97.5209L133.74 104.731C143.488 141.908 130.663 172.678 79.6615 183.505L90.9044 231.884C138.066 220.443 170.567 187.327 159.947 135.521C157.197 122.11 153.811 108.355 149.337 97.5209Z" fill="#AFB9C5"/>
<path fill-rule="evenodd" clip-rule="evenodd" d="M280.091 199.432C246.28 144.568 205.264 107.827 157.043 89.2071L155.507 89.7967L155.455 89.8168L155.448 89.8365L133.328 104.7C144.511 133.831 146.385 158.086 148.187 181.405C148.966 191.475 149.73 201.37 151.225 211.408L216.722 186.267C221.712 196.509 226.46 207.184 231.049 218.257L280.091 199.432Z" fill="#C5CFD6"/>
<path fill-rule="evenodd" clip-rule="evenodd" d="M216.722 186.267C206.562 165.413 195.395 146.348 182.507 129.346C191.575 149.338 201.655 174.588 203.41 191.377L216.722 186.267Z" fill="black" fill-opacity="0.1"/>
<path fill-rule="evenodd" clip-rule="evenodd" d="M21.8749 65L92.3552 94.1938L74.55 137.226L69.8514 135.28L65.7817 145.116L60.4541 131.388L4.06973 108.033L21.8749 65Z" fill="#1F28CE"/>
</svg>
