<svg width="303" height="417" viewBox="0 0 303 417" fill="none" xmlns="http://www.w3.org/2000/svg">
<path fill-rule="evenodd" clip-rule="evenodd" d="M155.935 66.2443C162.411 70.1475 168.774 72.0333 171.76 71.2635C179.25 69.333 179.938 41.9351 174.143 31.1339C168.349 20.3328 138.558 15.625 137.057 37.0255C136.536 44.4529 139.654 51.0814 144.262 56.4901L136 95H160L155.935 66.2443Z" fill="#B28B67"/>
<path fill-rule="evenodd" clip-rule="evenodd" d="M142.418 61.3075C139.406 47.9065 130.825 38.7714 132.135 32.7817C133.446 26.792 139.121 25.3321 139.121 25.3321C139.121 25.3321 142.057 13.4572 158.056 15.2304C174.055 17.0036 183.819 23.6478 179.602 38.2679C175.726 38.2679 171.046 36.866 164.576 39.2679C161.496 40.411 160.17 46.358 160.17 46.358H157.246C157.246 46.358 152.989 39.3006 148.851 41.1712C144.713 43.0418 146.97 50.2586 146.97 50.2586L145.529 61.3075H142.418Z" fill="#191847"/>
<path fill-rule="evenodd" clip-rule="evenodd" d="M92.6226 220H169.877L180 344H65L92.6226 220Z" fill="#C5CFD6"/>
<path fill-rule="evenodd" clip-rule="evenodd" d="M92.6226 220H116.383L130.604 344H65L92.6226 220Z" fill="black" fill-opacity="0.1"/>
<path fill-rule="evenodd" clip-rule="evenodd" d="M212.323 244.567C203.642 262.978 190.077 307.672 190.077 307.672L201.593 312.934C201.593 312.934 230.814 265.952 248.672 233.836C247.84 241.066 246.993 249.206 246.208 257.763C244.347 278.033 246.207 321.827 247.208 334.477C247.837 342.428 258.64 340.762 259.648 334.457C259.819 333.389 260.515 329.639 261.554 324.045C266.647 296.613 279.976 224.818 280 207.238C280.009 200.165 266.19 193.81 257.953 198.756C252.295 192.719 241.588 189.24 235.436 199.212C231.525 205.552 222.233 223.55 212.323 244.567Z" fill="#B28B67"/>
<path fill-rule="evenodd" clip-rule="evenodd" d="M190.9 291.125L230.427 197.487C239.897 182.255 266.446 200.587 263.217 209.422C255.886 229.479 218.6 294.414 216.415 300.39L190.9 291.125Z" fill="#191847"/>
<path fill-rule="evenodd" clip-rule="evenodd" d="M191.664 302.185C190.971 301.241 189.63 301.017 188.734 301.771C187.099 303.146 184.748 305.264 183.899 306.734C182.547 309.076 180.733 314.021 180.733 314.021C183.45 315.59 229.578 342.222 229.578 342.222C229.578 342.222 235.116 337.027 231.304 334.156C227.492 331.286 225.012 329.315 225.012 329.315L208.152 306.087C207.821 305.631 207.179 305.538 206.733 305.882L203.23 308.579C203.23 308.579 198.409 308.158 196.035 306.788C194.59 305.953 192.824 303.767 191.664 302.185Z" fill="#E4E4E4"/>
<path fill-rule="evenodd" clip-rule="evenodd" d="M247.45 328.284C246.378 327.813 245.104 328.29 244.705 329.391C243.977 331.398 243 334.409 243 336.106C243 338.811 243.901 344 243.901 344C247.039 344 300.303 344 300.303 344C300.303 344 302.502 336.732 297.765 336.152C293.028 335.573 289.895 335.106 289.895 335.106L263.68 323.419C263.165 323.189 262.563 323.43 262.348 323.951L260.663 328.039C260.663 328.039 256.278 330.085 253.537 330.085C251.868 330.085 249.246 329.074 247.45 328.284Z" fill="#E4E4E4"/>
<path fill-rule="evenodd" clip-rule="evenodd" d="M282.77 214.433C282.77 241 270.154 302.97 270.146 308.82L243 308.841C243 308.841 248.96 225.898 247.227 225.004C245.493 224.111 176.176 231.925 155.386 231.925C125.408 231.925 113.006 213.02 112 178H171.386C183.478 179.294 246.549 192.015 269.972 196.388C280 198.261 282.77 207.115 282.77 214.433Z" fill="#2F3676"/>
<path fill-rule="evenodd" clip-rule="evenodd" d="M215.348 96.6899L180.638 115.7L193.456 129.458L218.677 106.365C231.963 102.704 238.039 100.025 236.905 98.3294C235.948 96.8997 234.406 96.9494 232.985 96.9951C231.878 97.0307 230.845 97.064 230.22 96.3937C228.794 94.8628 231.515 89.5104 234.315 84.5416C237.114 79.5727 234.121 80.0053 232.409 80.7199C226.807 84.5123 221.12 89.8356 215.348 96.6899ZM250.247 123.364L235 131.74L235.868 147.04C235.868 147.04 245.743 139.913 254.238 137.544C265.071 134.524 269.453 132.218 274.746 125.473C277.579 121.865 279.982 114.61 277.286 112.248C276.252 111.341 272.399 113.482 268.468 115.667C265.472 117.332 262.43 119.022 260.556 119.408C258.034 119.927 258.329 116.657 258.565 114.045C258.734 112.17 258.873 110.633 257.918 111.077C253.455 111.154 250.247 123.364 250.247 123.364Z" fill="#997659"/>
<path fill-rule="evenodd" clip-rule="evenodd" d="M163.734 111.465C175.892 111.337 192.104 108.769 209.402 97.7888L216.196 112.939C204.264 124.78 187.486 134.51 172.816 134.098C161.255 133.773 155.347 119.789 163.734 111.465Z" fill="#2026A2"/>
<path fill-rule="evenodd" clip-rule="evenodd" d="M130.945 215.259C119.387 213.752 108.766 212.367 102.473 213.606C95.4113 190.673 101.275 176.234 106.688 162.905C109.95 154.871 113.049 147.241 113.056 138.397C113.075 112.642 133.754 73 136.797 73H137.67H161.783H164.544C165.784 88.9374 171.079 106.193 176.407 123.56C177.652 127.615 178.898 131.677 180.095 135.729C200.26 140.307 245.036 124.373 245.036 124.373C245.036 124.373 256.34 147.759 255.487 157.717C229.424 171.331 207.087 177.401 188.683 177.802C189.268 188.721 187.939 199.112 183.474 208.606C177.491 221.327 152.576 218.079 130.945 215.259Z" fill="#1F28CF"/>
</svg>
