<svg width="141" height="125" viewBox="0 0 141 125" fill="none" xmlns="http://www.w3.org/2000/svg">
<circle cx="119.5" cy="21.5" r="21.5" fill="black" fill-opacity="0.1"/>
<path fill-rule="evenodd" clip-rule="evenodd" d="M121.113 10.2125C121.113 9.02509 120.15 8.0625 118.963 8.0625C117.775 8.0625 116.812 9.02509 116.812 10.2125V24.1875C116.812 25.3749 117.775 26.3375 118.963 26.3375C118.994 26.3375 119.026 26.3368 119.058 26.3354C119.11 26.3392 119.163 26.3412 119.216 26.3412H127.816C129.004 26.3412 129.966 25.3786 129.966 24.1912C129.966 23.0038 129.004 22.0412 127.816 22.0412H121.113V10.2125Z" fill="black" fill-opacity="0.2"/>
<rect x="34.6526" y="17.8428" width="80" height="80" rx="8" transform="rotate(25 34.6526 17.8428)" fill="black" fill-opacity="0.1"/>
<path d="M31.2716 25.0932C33.1389 21.0889 37.8987 19.3565 41.9031 21.2237L99.9067 48.2713C103.911 50.1385 105.644 54.8984 103.776 58.9027L97.0144 73.4036L24.5098 39.5942L31.2716 25.0932Z" fill="black" fill-opacity="0.2"/>
<path d="M49.562 64.8683L45.3703 62.9137L38.6071 63.7848L36.763 67.7396L43.0051 66.964L43.1287 67.0217L35.2671 83.881L39.7265 85.9605L49.562 64.8683Z" fill="black" fill-opacity="0.2"/>
<path d="M52.4734 92.2556C57.2316 94.4743 61.837 93.5249 63.4417 90.1105C64.6609 87.4691 63.6357 84.3706 61.2991 82.7669L61.3663 82.6227C63.7816 83.1973 66.2458 82.0268 67.3366 79.7143C68.8487 76.4447 66.8416 72.5748 62.5779 70.5866C58.3038 68.5936 54.0491 69.5436 52.537 72.8131C51.451 75.1153 52.1129 77.7561 54.1467 79.2562L54.0795 79.4004C51.3079 78.622 48.2958 79.838 47.0767 82.4793C45.472 85.8938 47.7153 90.0368 52.4734 92.2556ZM54.0006 88.9805C51.879 87.9912 51.0437 86.072 51.8745 84.2903C52.7246 82.4674 54.8326 81.8455 56.8821 82.8012C58.9213 83.752 59.8102 85.7715 58.9602 87.5944C58.1246 89.3864 56.1119 89.965 54.0006 88.9805ZM58.3949 79.557C56.6132 78.7262 55.8891 76.9717 56.6671 75.3032C57.4355 73.6554 59.2099 73.1036 61.0123 73.9441C62.8043 74.7797 63.5277 76.5088 62.7641 78.1463C61.9861 79.8147 60.1663 80.383 58.3949 79.557Z" fill="black" fill-opacity="0.2"/>
</svg>
