<svg width="131" height="88" viewBox="0 0 131 88" fill="none" xmlns="http://www.w3.org/2000/svg">
<path fill-rule="evenodd" clip-rule="evenodd" d="M0 67.9997C0 51.7409 9.70048 37.7478 23.6296 31.4922C27.2484 36.6375 33.2316 39.9997 40 39.9997C46.7684 39.9997 52.7516 36.6375 56.3704 31.4922C65.3988 35.5468 72.6506 42.8522 76.6359 51.9182C71.8806 57.3666 69 64.4935 69 72.2933V87.7933H80V87.9997H0V67.9997Z" fill="black" fill-opacity="0.1"/>
<path fill-rule="evenodd" clip-rule="evenodd" d="M87.3128 44C76.5178 48.8481 69 59.6928 69 72.2933V87.7933H131V72.2933C131 59.6928 123.482 48.8482 112.687 44.0001C109.883 47.9878 105.246 50.5937 100 50.5937C94.7544 50.5937 90.1174 47.9878 87.3128 44Z" fill="black" fill-opacity="0.2"/>
<rect x="84.5" y="19.5938" width="31" height="31" rx="15.5" fill="black" fill-opacity="0.3"/>
<rect x="20" width="40" height="40" rx="20" fill="black" fill-opacity="0.2"/>
</svg>
